<svg xmlns="http://www.w3.org/2000/svg" style="display:none">
  <symbol id="icon-sparkle" viewBox="0 0 16 16"><path d="M7.198.57c.275-.752 1.34-.752 1.615 0l.849 2.317a5.819 5.819 0 0 0 3.462 3.463l2.317.848c.753.275.753 1.34 0 1.615l-2.317.849a5.815 5.815 0 0 0-3.462 3.462l-.849 2.317c-.275.753-1.34.753-1.615 0l-.848-2.317a5.819 5.819 0 0 0-3.463-3.462L.57 8.813c-.752-.275-.752-1.34 0-1.615l2.317-.848A5.823 5.823 0 0 0 6.35 2.887L7.198.57Zm.562 2.833A7.323 7.323 0 0 1 3.403 7.76l-.673.246.673.246a7.324 7.324 0 0 1 4.357 4.356l.246.673.246-.673a7.322 7.322 0 0 1 4.356-4.356l.673-.246-.673-.246a7.324 7.324 0 0 1-4.356-4.357l-.246-.673-.246.673Z"/></symbol>
  <symbol id="icon-chevron-down" viewBox="0 0 16 16"><path d="M12.78 5.22a.749.749 0 0 1 0 1.06l-4.25 4.25a.749.749 0 0 1-1.06 0L3.22 6.28a.749.749 0 1 1 1.06-1.06L8 8.939l3.72-3.719a.749.749 0 0 1 1.06 0Z"/></symbol>
  <symbol id="icon-columns" viewBox="0 0 16 16"><path d="M2.75 0h2.5C6.216 0 7 .784 7 1.75v12.5A1.75 1.75 0 0 1 5.25 16h-2.5A1.75 1.75 0 0 1 1 14.25V1.75C1 .784 1.784 0 2.75 0Zm8 0h2.5C14.216 0 15 .784 15 1.75v12.5A1.75 1.75 0 0 1 13.25 16h-2.5A1.75 1.75 0 0 1 9 14.25V1.75C9 .784 9.784 0 10.75 0ZM2.5 1.75v12.5c0 .138.112.25.25.25h2.5a.25.25 0 0 0 .25-.25V1.75a.25.25 0 0 0-.25-.25h-2.5a.25.25 0 0 0-.25.25Zm8 0v12.5c0 .138.112.25.25.25h2.5a.25.25 0 0 0 .25-.25V1.75a.25.25 0 0 0-.25-.25h-2.5a.25.25 0 0 0-.25.25Z"/></symbol>
  <symbol id="icon-list-unordered" viewBox="0 0 16 16"><path d="M5.75 2.5h8.5a.75.75 0 0 1 0 1.5h-8.5a.75.75 0 0 1 0-1.5Zm0 5h8.5a.75.75 0 0 1 0 1.5h-8.5a.75.75 0 0 1 0-1.5Zm0 5h8.5a.75.75 0 0 1 0 1.5h-8.5a.75.75 0 0 1 0-1.5ZM2 14a1 1 0 1 1 0-2 1 1 0 0 1 0 2Zm1-6a1 1 0 1 1-2 0 1 1 0 0 1 2 0ZM2 4a1 1 0 1 1 0-2 1 1 0 0 1 0 2Z"/></symbol>
  <symbol id="icon-moon" viewBox="0 0 16 16"><path d="M9.598 1.591a.749.749 0 0 1 .785-.175 7.001 7.001 0 1 1-8.967 8.967.75.75 0 0 1 .961-.96 5.5 5.5 0 0 0 7.046-7.046.75.75 0 0 1 .175-.786Zm1.616 1.945a7 7 0 0 1-7.678 7.678 5.499 5.499 0 1 0 7.678-7.678Z"/></symbol>
  <symbol id="icon-arrow-switch" viewBox="0 0 16 16"><path d="M5.22 14.78a.75.75 0 0 0 1.06-1.06L4.56 12h8.69a.75.75 0 0 0 0-1.5H4.56l1.72-1.72a.75.75 0 0 0-1.06-1.06l-3 3a.75.75 0 0 0 0 1.06l3 3Zm5.56-6.5a.75.75 0 1 1-1.06-1.06l1.72-1.72H2.75a.75.75 0 0 1 0-1.5h8.69L9.72 2.28a.75.75 0 0 1 1.06-1.06l3 3a.75.75 0 0 1 0 1.06l-3 3Z"/></symbol>
  <symbol id="icon-git-compare" viewBox="0 0 16 16"><path d="M9.573.677A.25.25 0 0 1 10 .854V2.5h1A2.5 2.5 0 0 1 13.5 5v5.628a2.251 2.251 0 1 1-1.5 0V5a1 1 0 0 0-1-1h-1v1.646a.25.25 0 0 1-.427.177L7.177 3.427a.25.25 0 0 1 0-.354ZM6 12v-1.646a.25.25 0 0 1 .427-.177l2.396 2.396a.25.25 0 0 1 0 .354l-2.396 2.396A.25.25 0 0 1 6 15.146V13.5H5A2.5 2.5 0 0 1 2.5 11V5.372a2.25 2.25 0 1 1 1.5 0V11a1 1 0 0 0 1 1ZM4 3.25a.75.75 0 1 0-1.5 0 .75.75 0 0 0 1.5 0ZM12.75 12a.75.75 0 1 0 0 1.5.75.75 0 0 0 0-1.5Z"/></symbol>
  <symbol id="icon-trash" viewBox="0 0 16 16"><path d="M11 1.75V3h2.25a.75.75 0 0 1 0 1.5H2.75a.75.75 0 0 1 0-1.5H5V1.75C5 .784 5.784 0 6.75 0h2.5C10.216 0 11 .784 11 1.75ZM4.496 6.675l.66 6.6a.25.25 0 0 0 .249.225h5.19a.25.25 0 0 0 .249-.225l.66-6.6a.75.75 0 0 1 1.492.149l-.66 6.6A1.748 1.748 0 0 1 10.595 15h-5.19a1.75 1.75 0 0 1-1.741-1.575l-.66-6.6a.75.75 0 1 1 1.492-.15ZM6.5 1.75V3h3V1.75a.25.25 0 0 0-.25-.25h-2.5a.25.25 0 0 0-.25.25Z"/></symbol>
</svg>
